<mxfile host="app.diagrams.net" modified="2022-11-08T18:36:58.504Z" agent="5.0 (Windows NT 10.0; Win64; x64) AppleWebKit/537.36 (KHTML, like Gecko) Chrome/107.0.0.0 Safari/537.36" etag="u9-TCxE9hXeWqyepMBtr" version="20.5.1" type="github">
  <diagram id="C5RBs43oDa-KdzZeNtuy" name="Page-1">
    <mxGraphModel dx="567" dy="801" grid="1" gridSize="10" guides="1" tooltips="1" connect="1" arrows="1" fold="1" page="1" pageScale="1" pageWidth="827" pageHeight="1169" math="0" shadow="0">
      <root>
        <mxCell id="WIyWlLk6GJQsqaUBKTNV-0" />
        <mxCell id="WIyWlLk6GJQsqaUBKTNV-1" parent="WIyWlLk6GJQsqaUBKTNV-0" />
        <mxCell id="WIyWlLk6GJQsqaUBKTNV-2" value="" style="rounded=0;html=1;jettySize=auto;orthogonalLoop=1;fontSize=11;endArrow=block;endFill=0;endSize=8;strokeWidth=1;shadow=0;labelBackgroundColor=none;edgeStyle=orthogonalEdgeStyle;" parent="WIyWlLk6GJQsqaUBKTNV-1" source="WIyWlLk6GJQsqaUBKTNV-3" edge="1">
          <mxGeometry relative="1" as="geometry">
            <mxPoint x="220" y="170" as="targetPoint" />
          </mxGeometry>
        </mxCell>
        <mxCell id="WIyWlLk6GJQsqaUBKTNV-3" value="시작" style="rounded=1;whiteSpace=wrap;html=1;fontSize=12;glass=0;strokeWidth=1;shadow=0;" parent="WIyWlLk6GJQsqaUBKTNV-1" vertex="1">
          <mxGeometry x="160" y="80" width="120" height="40" as="geometry" />
        </mxCell>
        <mxCell id="3aM2ghv2n-kb10GFXs93-2" style="edgeStyle=orthogonalEdgeStyle;rounded=0;orthogonalLoop=1;jettySize=auto;html=1;exitX=0.5;exitY=1;exitDx=0;exitDy=0;entryX=0.5;entryY=0;entryDx=0;entryDy=0;" edge="1" parent="WIyWlLk6GJQsqaUBKTNV-1" source="3aM2ghv2n-kb10GFXs93-0" target="3aM2ghv2n-kb10GFXs93-3">
          <mxGeometry relative="1" as="geometry" />
        </mxCell>
        <mxCell id="3aM2ghv2n-kb10GFXs93-0" value="변수, 배열 선언&lt;br&gt;Det, a, Left, Right&lt;br&gt;detx~z" style="shape=hexagon;perimeter=hexagonPerimeter2;whiteSpace=wrap;html=1;fixedSize=1;" vertex="1" parent="WIyWlLk6GJQsqaUBKTNV-1">
          <mxGeometry x="155" y="170" width="130" height="60" as="geometry" />
        </mxCell>
        <mxCell id="3aM2ghv2n-kb10GFXs93-6" style="edgeStyle=orthogonalEdgeStyle;rounded=0;orthogonalLoop=1;jettySize=auto;html=1;exitX=0.5;exitY=1;exitDx=0;exitDy=0;entryX=0.5;entryY=0;entryDx=0;entryDy=0;" edge="1" parent="WIyWlLk6GJQsqaUBKTNV-1" source="3aM2ghv2n-kb10GFXs93-1" target="3aM2ghv2n-kb10GFXs93-5">
          <mxGeometry relative="1" as="geometry" />
        </mxCell>
        <mxCell id="3aM2ghv2n-kb10GFXs93-1" value="계산하고 싶은 식&lt;br&gt;입력" style="shape=trapezoid;perimeter=trapezoidPerimeter;whiteSpace=wrap;html=1;fixedSize=1;flipV=1;" vertex="1" parent="WIyWlLk6GJQsqaUBKTNV-1">
          <mxGeometry x="160" y="400" width="120" height="60" as="geometry" />
        </mxCell>
        <mxCell id="3aM2ghv2n-kb10GFXs93-4" value="" style="edgeStyle=orthogonalEdgeStyle;rounded=0;orthogonalLoop=1;jettySize=auto;html=1;" edge="1" parent="WIyWlLk6GJQsqaUBKTNV-1" source="3aM2ghv2n-kb10GFXs93-3" target="3aM2ghv2n-kb10GFXs93-1">
          <mxGeometry relative="1" as="geometry" />
        </mxCell>
        <mxCell id="3aM2ghv2n-kb10GFXs93-3" value="안내 멘트와&amp;nbsp;&lt;br&gt;예시, 수정 방법&lt;br&gt;멘트 출력" style="shape=parallelogram;perimeter=parallelogramPerimeter;whiteSpace=wrap;html=1;fixedSize=1;" vertex="1" parent="WIyWlLk6GJQsqaUBKTNV-1">
          <mxGeometry x="160" y="280" width="120" height="60" as="geometry" />
        </mxCell>
        <mxCell id="3aM2ghv2n-kb10GFXs93-8" style="edgeStyle=orthogonalEdgeStyle;rounded=0;orthogonalLoop=1;jettySize=auto;html=1;exitX=0.5;exitY=1;exitDx=0;exitDy=0;entryX=0.5;entryY=0;entryDx=0;entryDy=0;" edge="1" parent="WIyWlLk6GJQsqaUBKTNV-1" source="3aM2ghv2n-kb10GFXs93-5" target="3aM2ghv2n-kb10GFXs93-7">
          <mxGeometry relative="1" as="geometry" />
        </mxCell>
        <mxCell id="3aM2ghv2n-kb10GFXs93-5" value="입력받은 값을 &lt;br&gt;계산을 위한&lt;br&gt;배열에 정리" style="rounded=0;whiteSpace=wrap;html=1;" vertex="1" parent="WIyWlLk6GJQsqaUBKTNV-1">
          <mxGeometry x="160" y="524.5" width="120" height="60" as="geometry" />
        </mxCell>
        <mxCell id="3aM2ghv2n-kb10GFXs93-10" style="edgeStyle=orthogonalEdgeStyle;rounded=0;orthogonalLoop=1;jettySize=auto;html=1;exitX=0.5;exitY=1;exitDx=0;exitDy=0;entryX=0.5;entryY=0;entryDx=0;entryDy=0;" edge="1" parent="WIyWlLk6GJQsqaUBKTNV-1" source="3aM2ghv2n-kb10GFXs93-7" target="3aM2ghv2n-kb10GFXs93-9">
          <mxGeometry relative="1" as="geometry" />
        </mxCell>
        <mxCell id="3aM2ghv2n-kb10GFXs93-12" style="edgeStyle=orthogonalEdgeStyle;rounded=0;orthogonalLoop=1;jettySize=auto;html=1;exitX=1;exitY=0.5;exitDx=0;exitDy=0;entryX=0;entryY=0.5;entryDx=0;entryDy=0;" edge="1" parent="WIyWlLk6GJQsqaUBKTNV-1" source="3aM2ghv2n-kb10GFXs93-7" target="3aM2ghv2n-kb10GFXs93-11">
          <mxGeometry relative="1" as="geometry" />
        </mxCell>
        <mxCell id="3aM2ghv2n-kb10GFXs93-7" value="Det(Left) != 0" style="rhombus;whiteSpace=wrap;html=1;" vertex="1" parent="WIyWlLk6GJQsqaUBKTNV-1">
          <mxGeometry x="135" y="640" width="170" height="80" as="geometry" />
        </mxCell>
        <mxCell id="3aM2ghv2n-kb10GFXs93-9" value="The calculation &lt;br&gt;result is..." style="shape=document;whiteSpace=wrap;html=1;boundedLbl=1;size=0.24999999999999717;" vertex="1" parent="WIyWlLk6GJQsqaUBKTNV-1">
          <mxGeometry x="160" y="780" width="120" height="80" as="geometry" />
        </mxCell>
        <mxCell id="3aM2ghv2n-kb10GFXs93-11" value="No answer found. Please re-enter the equation" style="shape=document;whiteSpace=wrap;html=1;boundedLbl=1;size=0.25;" vertex="1" parent="WIyWlLk6GJQsqaUBKTNV-1">
          <mxGeometry x="390" y="640" width="120" height="80" as="geometry" />
        </mxCell>
        <mxCell id="3aM2ghv2n-kb10GFXs93-13" value="End" style="ellipse;whiteSpace=wrap;html=1;" vertex="1" parent="WIyWlLk6GJQsqaUBKTNV-1">
          <mxGeometry x="160" y="920" width="120" height="60" as="geometry" />
        </mxCell>
        <mxCell id="3aM2ghv2n-kb10GFXs93-18" value="" style="endArrow=classic;html=1;rounded=0;exitX=0.504;exitY=0.884;exitDx=0;exitDy=0;exitPerimeter=0;entryX=0.5;entryY=0;entryDx=0;entryDy=0;" edge="1" parent="WIyWlLk6GJQsqaUBKTNV-1" source="3aM2ghv2n-kb10GFXs93-9" target="3aM2ghv2n-kb10GFXs93-13">
          <mxGeometry width="50" height="50" relative="1" as="geometry">
            <mxPoint x="360" y="860" as="sourcePoint" />
            <mxPoint x="410" y="810" as="targetPoint" />
          </mxGeometry>
        </mxCell>
        <mxCell id="3aM2ghv2n-kb10GFXs93-19" value="" style="endArrow=classic;html=1;rounded=0;" edge="1" parent="WIyWlLk6GJQsqaUBKTNV-1">
          <mxGeometry width="50" height="50" relative="1" as="geometry">
            <mxPoint x="460" y="700" as="sourcePoint" />
            <mxPoint x="220" y="890" as="targetPoint" />
            <Array as="points">
              <mxPoint x="460" y="890" />
            </Array>
          </mxGeometry>
        </mxCell>
        <mxCell id="3aM2ghv2n-kb10GFXs93-20" value="Yes" style="text;html=1;strokeColor=none;fillColor=none;align=center;verticalAlign=middle;whiteSpace=wrap;rounded=0;" vertex="1" parent="WIyWlLk6GJQsqaUBKTNV-1">
          <mxGeometry x="150" y="750" width="60" height="30" as="geometry" />
        </mxCell>
        <mxCell id="3aM2ghv2n-kb10GFXs93-22" value="No" style="text;html=1;strokeColor=none;fillColor=none;align=center;verticalAlign=middle;whiteSpace=wrap;rounded=0;" vertex="1" parent="WIyWlLk6GJQsqaUBKTNV-1">
          <mxGeometry x="330" y="680" width="60" height="30" as="geometry" />
        </mxCell>
      </root>
    </mxGraphModel>
  </diagram>
</mxfile>
